<?xml version="1.0" encoding="UTF-8"?>
<svg xmlns="http://www.w3.org/2000/svg" version="1.1" xmlns:i="http://ns.adobe.com/AdobeIllustrator/10.0/" viewBox="0 0 740 630">
  <defs>
    <style>
      .cls-1 {
        fill: #0b8d45;
      }
    </style>
  </defs>
  <!-- Generator: Adobe Illustrator 28.7.9, SVG Export Plug-In . SVG Version: 1.2.0 Build 218)  -->
  <g>
    <g id="Layer_1">
      <g>
        <path class="cls-1" d="M344.8,10c101.2-7.9,176.4,31.2,228.7,77.3,52,45.9,95.4,113.5,102,203,7.5,101.2-30.8,175.8-77.3,228.7-47.6,54.2-114.2,93.9-204,100.9-97.6,7.6-173.5-28.8-227.7-76.2-54.5-47.7-94.4-110.2-102-203-8.1-99,29.6-176.7,75.2-228.7C184.9,60.4,252.2,17.3,344.8,10ZM234.2,60.5c-32.4,17.7-58.8,39.3-80.5,63.4-44.2,48.9-78.4,118.7-70.9,214.8,6.7,85.7,44.4,145.4,95.6,191.2,49,43.7,120.7,78.8,213.7,71.9,85.3-6.3,147.4-44.1,192.2-94.5,44.4-50,79.5-121.3,73-214.8-6-86.8-47.6-148.1-95.6-191.2-48.7-43.7-120.1-80-214.8-73-41.8,3.1-82.4,15.7-112.8,32.2Z"/>
        <g>
          <path class="cls-1" d="M373.8,47.6c.6,2.2,2.7,3.1,2.1,6.4,5.8-1.4,12.9-6,15,2.1-2.6,1-4.7,2.5-8.6,2.1-1.1,7.9-11.1,6.8-10.7,16.1,7.2-1.6,14-17.9,29-11.8,1.1,5-5,2.9-4.3,7.5,4.3,2.5,13,.7,14,6.4-11.9,3.2-26,4-35.4,9.7,9.3,1,37.8-7,39.7,7.5-5.3.3-8.1-1.9-14-1.1,1.4,6.9,10.5,5.9,10.7,14-8.7-3.5-20.3-4-26.8-9.7,3.1,9.1,14.4,9.9,15,21.5-8.2-.6-13.4-13-22.6-16.1,3.8,8.8,10.8,14.2,11.8,25.8-6,.6-7.5-3.2-7.5-8.6-3.4-3.4-8.6-5-9.7-10.7-.4,5.8,4.6,15.4,3.2,25.8-1.3-1.2-3.8-1.2-6.4-1.1,2.1,21.5,4.8,42.5,7.5,63.4,5.3,1.5,12.6,1,19.3,1.1,0,7.6-5,9.4-11.8,7.5-2.5.3-1,4.7-3.2,5.4-4.1,2.3-5.2-1-8.6-2.1-3,.2-1.3,5.1-5.4,4.3-4.7-4.3-12-5.8-16.1-1.1-4.2-1.9-7.9-4.3-8.6-9.7,5.1-1,9.7-2.4,16.1-2.1,7-5.5,0-25.1,5.4-32.2-6.1-9.1,8.7-33.8-9.7-33.3-3.9-7.6-.7-17.8,0-26.8-5.6,4.8-3.8,17-11.8,19.3v-10.7c-5.1-1.4-6.1,6.7-8.6,4.3v-10.7c-4.7-1.1-3.5,3.6-7.5,3.2-.2-11.6,9.8-13.1,15-19.3-11.3,3.4-17.5,11.9-24.7,19.3-9.2-7,6.6-13.1,7.5-20.4-3.4-1.3-13.5,4.8-18.3,2.1,5.6-8.9,20.1-12.7,34.4-9.7-6.8-5.8-19.3-5.8-24.7-12.9,11.6-6.5,25.3,3.2,33.3,7.5-3.2-7.9-19.8-11.7-23.6-22.6,16.1-1.8,20.3,8.3,27.9,15,.9-8.1-9.6-14-14-20.4,3.7-3.5,17.3-5.5,20.4,0,3.6-2.8,7.1-5.8,15-4.3Z"/>
          <path class="cls-1" d="M473.7,193.7c-42.5,6.9-75.4,23.4-97.7,50.5,3.6,6.8,8.1,12.6,16.1,15,5.9.9,2.5-7.5,9.7-5.4,1.4,5.3-2.6,5.3-2.1,9.7,9,10.2,28.5-7,31.1,5.4,1.5,7.1-7.9,11.9-15,12.9-16.6,2.2-23.8-10.6-35.4-3.2-1.6-5.9,2.7-5.9,4.3-8.6-4.8-6.3-10.4-11.8-17.2-16.1-7.3,3.1-12.1,8.6-16.1,15-2.9,4.1,7.4,5.1,3.2,10.7-6.1,1.4-5.1-4.3-9.7-4.3-9.6,6.3-28.6,12.9-37.6,2.2v-8.6c7.3-8.6,22,6,30.1-3.2-.3-4.6-6.4-4.6-3.2-9.7,5-1.1,4.7,3.1,7.5,4.3,6.4-3.6,11.5-8.6,16.1-14-21.2-24.3-51.3-39.6-92.4-44,36.1-17.9,78.9,15.3,100.9,33.3,27.9-20.3,57.1-54.4,107.4-41.9ZM378.1,255.9c-1.1-4.2-4.2-6.5-8.6-7.5,1,4.3,5,5.7,8.6,7.5ZM410.3,276.3c4.7-2.1,12.7-.9,14-6.4-3.2-4.2-12.2,2.2-14,6.4ZM311.6,275.3c3.6-3.1,12.2,1.6,12.9-2.1-3.9-2.3-16-6.2-12.9,2.1Z"/>
        </g>
        <path class="cls-1" d="M261.1,310.7h48.3c13.2,17.1,30.9,34,59.1,34.4,28.2.4,48-15.5,60.1-34.4h49.4c-14.3,80.6-133.5,105.5-191.1,47.3-11.6-11.7-19.6-26.8-24.7-44-.6-.9-1.1-1.7-1.1-3.2ZM304,327.9h5.4v-5.4c-3.1-.1-5.1-1.3-4.3-5.4-3,.9-2.8-1.5-5.4-1.1-2.2,7.6,5.8,4.9,4.3,11.8ZM443.6,318.2c-1.5,3.7,2.2,10.4,7.5,10.7,4,1.1,3.5-2.3,5.4-3.2,3.7,5-2.2,11.9,0,15,12.8-7.8,1.8-27.6-12.9-22.6ZM282.6,335.4c4.3.7,11.4-1.4,14,1.1,0,3.5-3.1,4.1-2.1,8.6,10.2,8.7,17.7,20.3,34.4,22.6,2.9,6.8,13.9,7.4,22.6,5.4,5.2,1.7,9.8,3.1,10.7-3.2-8.8.1-18.8-18.3-24.7-4.3,4.3-.3,6.6,1.3,8.6,3.2-17.3.1-10.8-12.3-6.4-22.5-8.4.9-6.2,12.4-11.8,16.1-3-3.8-13.4-3.6-9.7-10.7-9.1,2.5-12.2-6-17.2-10.7-.1-3.3,3.4-3.1,2.1-7.5-4.1-4.1-12.6.9-15-3.2.1-4.9,5.6-4.4,6.4-8.6-6.4,2-14.2,6.6-11.8,14ZM429.7,323.6v5.4h5.4c-.7-2.2,1.7-7.5-2.1-6.4-.2,1.2-1.7,1.2-3.2,1.1ZM442.6,347.2c-2-10.2-11.1-13.2-18.3-18.3,1.4,10.8,12.1,12.3,18.3,18.3ZM437.2,330c-.5,3.4,2.9,2.8,3.2,5.4,2.5-.3,4-1.7,7.5-1.1,2.5,6.3-.2,11.3-2.1,16.1,15.9-2.1,6-27.5-8.6-20.4ZM406.1,349.4c7.3,1.9,4.6-6.2,11.8-4.3v-5.4h-5.4c.7,6.1-8.1,2.6-6.4,9.7ZM427.5,348.3c3,.2,7.4-.9,7.5,2.1,1.1,7.2-2.7,9.5-4.3,14,4.4-.6,6.7-3.4,9.7-5.4.6-11-4.3-16.5-14-17.2-2.4,2.3,1.4,3.2,1.1,6.4ZM410.3,370.8c-.6-10.2-3.6-17.9-8.6-23.6-1.1,9.9,2.3,18.3,8.6,23.6ZM416.8,364.4c8.8.8,10.5-5.8,8.6-12.9-2.6-1.7-5.1-3.5-9.7-3.2-2.3,4.2-1.1,12.9,1.1,16.1ZM398.5,367.6c-4.8.9-8.8,2.7-14,3.2-2.3-3.8-2.2-9.9-5.4-12.9-3.3,4.4-.8,7.5,0,12.9-2.1,1.7-9,1.9-9.7-1.1-1.6,1.6-1.6,7,0,8.6,13.5-2.2,20.6-.4,33.3-5.4,1.8-9.9-6-12.7-3.2-20.4-4.1.5-5-2.1-7.5-3.2-3.7,8.3,6,10.7,6.4,18.3ZM344.8,352.6c-.6,6,4.6,5.9,7.5,3.2,0-4.5-4.2-4.8-7.5-3.2ZM364.2,378.4c3.8-3.6,5.4-20.1,1.1-24.7-3.9,4.9-2.6,16.6-1.1,24.7ZM305.1,365.5c3.2-4.8-5-6-5.4-10.7h-5.4c2.1,5,4.3,10,10.7,10.7Z"/>
        <path class="cls-1" d="M416.8,354.7h4.3c1.3,3.7-6,5-4.3,0Z"/>
        <path class="cls-1" d="M627.3,362.3c-8.6,14.3-28.4,26.7-47.2,34.4-1.3,4.1-4.7,6.1-4.3,11.8,14.2-4.8,30.4-16.9,48.3-21.5-12.7,22-50.6,18.9-61.2,43,16.5-.7,29.8-13.9,49.4-15-11.5,22.5-55.2,12.8-65.5,36.5,17.6.6,36.6-12,55.8-9.7-10.9,6.3-24.7,14.4-41.9,17.2-16.8,2.7-30.2,1.1-35.4,15,16,.9,35.4-3.9,55.8-2.1-17.3,18-69.7,1.3-81.6,22.5,17.3,3.8,39.5,2.8,56.9,6.4-25.7,16.1-71.9-9.9-88.1,11.8,19.7,5.3,47.1,3,63.4,11.8-33.2,10.8-67-13.7-92.4-1.1,15.1,12.1,40.2,14.2,51.5,30.1-6.2,7.4-18.4,8.8-26.8,14-20.7-15.2-45.5-33.3-79.5-34.4-40.3-1.2-70.4,18.4-92.4,38.7-10.7-2.9-21.4-5.8-29-11.8,12.8-14.1,31.1-22.6,49.4-31.1-15.3-11-40.2,5-67.7,6.4-8.7.5-18.2-.1-25.8-1.1,15.9-10.6,44.1-8.9,64.4-15-21-20.8-62.4,4.4-93.4-8.6,13.2-9.3,40.8-4.3,60.1-7.5-11-20.9-67.9-1.5-85.9-20.4,18.2-4.7,42.4,1.6,61.2,3.2-10.8-26.4-62.7-11.7-80.5-31.1,19.6-2.5,37.7,4.1,54.8,7.5-1-6.8-7.1-8.7-10.7-12.9-23.4-2.4-41.8-9.7-58-19.3,20-3.1,35.7,7.2,51.5,11.8-11.6-22.1-47.4-19.9-62.3-38.7,18.9-1,32.8,12.3,48.3,18.3-5.9-23.8-44.7-24.1-55.8-46.2,19.3,3.6,29.4,16.4,45.1,23.6-7.2-25.4-39.1-26.1-50.5-47.3,16.5.7,26.8,16.9,39.7,24.7,1.7-15.7-15.5-19.8-24.7-27.9-8-7-12.8-15.4-17.2-24.7,15.8,6.4,22.9,21.5,36.5,30.1-1.6-27.1-31.3-33.7-36.5-59.1,14.1,7,20.4,21.8,31.1,32.2,3.8-29.6-25.2-35.7-27.9-62.3,14.9,5.2,16.4,23.7,26.8,33.3,4.5-27.8-19.1-36.8-18.3-64.4,11.9,7.4,12.5,26.2,20.4,37.6,9.1-25.6-13-37.5-8.6-65.5,8.1,9.1,8.7,25.7,12.9,38.7,12.2-17.5-4.9-38,0-64.4,5.4,9.3,6.5,22.8,6.4,37.6,17.5-9.8-1.5-39.5,7.5-59.1,5.8,6.7,3.7,21.4,5.4,32.2,13.6-3.6,3.2-40.4,10.7-53.7,6.2,8.4,1.5,22.3,1.1,33.3,18-5.3,6-40.5,19.3-50.5,1,12.1-3,19.2-3.2,30.1,15.2-4.1,8.6-39.3,23.6-47.3-1,11.2-5.7,18.6-7.5,29,16.5-1,16.1-28.3,24.7-40.8,3.3,6.9-2.3,14.1-3.2,20.4,16.1-1.4,20.4-24,29-36.5,2.6,6.9-4.7,13.2-5.4,20.4,12.9.3,20.3-14.1,36.5-14-10.5,13.5-35.1,12.8-45.1,26.8,7.5,2.9,21.4-.6,24.7,6.4-15.3,4.4-40-6.6-44,9.7,5.5,2.1,18.9-2.3,25.8,1.1-12.7,8.7-44.1-1.1-46.2,18.3,8.8,2.2,18-4.1,30.1-2.1-11.3,11.6-43.2,2.6-46.2,22.6,10.4,3.1,19.1-4.4,30.1-4.3-11.1,13.3-43.1,5.6-45.1,27.9,10.6.2,20.4-9.6,34.4-9.7-8.6,15.7-40.2,8.5-43,30.1,9.6-.5,18.8-10.4,31.1-11.8,1.9,5.8-9.4,8.4-16.1,11.8-7.2,3.6-14.8,8-20.4,10.7-.7,4.3-2.7,7.3-2.1,12.9,12.6-3.2,18.8-12.7,31.1-16.1,1.1,13-27.4,15.7-35.4,27.9-2.5,3.8-3.1,9.7-2.1,15,12.9-4.6,16.9-18.1,32.2-20.4-5.9,20.2-39.3,18.7-34.4,46.2,12.8-6.2,16.5-21.5,32.2-24.7-4.5,21.1-38.8,23.2-31.1,49.4,9.2-10.5,16.7-22.7,30.1-29-6.1,16.8-18.7,27.1-30.1,38.7,0,7.5,1.3,13.8,3.2,19.3,10.1-11.7,14.7-29,27.9-37.6-1.9,24.8-31,36.3-21.5,62.3,11.6-11.3,13-32.8,26.8-41.9-.8,25.5-30.8,42.5-17.2,65.5,7-15.2,10.6-33.8,20.4-46.2,5.5,24.5-28,48.2-8.6,66.6,5.1-16.4,7.2-35.7,16.1-48.3,6.5,24.2-22.4,54.1-2.1,68.7,3.5-17.6,4-38.2,9.7-53.7,11.1,26.2-17.4,63.7,7.5,74.1,2.5-16.7-4.3-44.8,6.4-55.8,8.9,23.8-11.4,67.9,11.8,74.1,1.1-16.5-2.6-37.5-1.1-58,8.8,15.9,9.6,39.8,9.7,64.4,4.6,5.1,10.4,9,17.2,11.8-.9-19.2-12.5-36.9-10.7-62.3,6.1,12.5,14.9,36,17.2,53.7.7,5.6-1.6,8.6,1.1,12.9,3.4,5.6,10.9,5.6,16.1,8.6-3-16.7-16.9-37.4-15-59.1,12.4,15.8,18.4,38.2,23.6,61.2,3.3,4.9,10.3,6.1,17.2,7.5-4.8-19.9-17.2-32.2-17.2-56.9,13.1,15.9,20,38,26.8,60.1,36.6,10.3,94.8,10.6,125.6-5.4,4-23.2,11.4-43,21.5-60.1,1.6,21.7-8.6,40.8-15,58,6.3,1.1,14.7-3.5,19.3-7.5,2.3-26,9.4-47.1,18.3-66.6,2.1,22.8-6.9,44-12.9,62.3,5.8,2.6,10.8-4,16.1-5.4,3.9-23.6,5.4-49.7,12.9-69.8,4.4,23.4-3.3,43.9-6.4,63.4,9.3-2.2,14.8-8.1,19.3-15-3.2-18.1-5.4-47.4,3.2-62.3,4.6,17.8,1.6,40.3,2.1,58,7.5-1.8,10.2-8.4,15-12.9-2.1-20.9-8.6-42.8-5.4-65.5,10.1,12.5,6.7,38.4,9.7,58,25.8-13.8-4-45.1,1.1-74.1,8,14.2,11.9,32.5,14,52.6,7.4-1.2,8.2-9,11.8-14-6.5-18.2-15.8-33.6-19.3-54.8,12.9,10.3,13.5,33,23.6,46.2,14.2-22.6-15.9-39.2-16.1-64.4,12.1,10.5,15.2,29.9,24.7,43,15.4-18.9-20.5-39.9-20.4-63.4,13.7,8.8,16.9,28.2,26.8,40.8,5.3-3.6,6.4-13.7,5.4-18.3-1.1-4.6-6.3-6.9-9.7-10.7-8.5-9.8-16.1-22.2-19.3-32.2,12.6,8.2,20,21.6,29,33.3,14.1-25.1-20.9-30.9-26.8-49.4,2.3-1.5,8.8,2.9,11.8,5.4,6.5,5.3,12,14.5,18.3,18.3,8.3-26.2-20.8-23.3-23.6-41.9,9.5,3.1,13.9,11.2,21.5,16.1,7.1-28.2-26.4-25.2-34.4-41.9,13.5,2.3,20,11.5,31.1,16.1,3.9-26.1-30.4-23.3-39.7-39.7,13.4,2.4,20.6,10.9,32.2,15,3-22.3-28.5-19.5-39.7-31.1,12.3-2.6,22.1,6.6,32.2,9.7.4-24-31.1-16.1-41.9-29,12.6,0,19.5,5.5,30.1,7.5,2.2-19.8-28-16.4-41.9-23.6,5.8-4.6,19,1.6,26.8,2.1-1.4-20.5-29.9-13.8-46.2-19.3,6.5-6.1,19.2-1,29-1.1-.3-14.4-25.1-13.6-43-14,2.8-6.5,16.8-1.8,24.7-3.2-5.3-17.5-27.8-8-45.1-10.7,3.7-5.6,16.3-2.4,24.7-3.2-9.8-15.9-35.6-15.9-50.5-26.8,18.3-3.7,27,11.7,41.9,15-1.9-9.1-9.7-12.5-10.7-22.6,14.9,7.3,12.9,31.5,31.1,35.4,1.9-8-7-14.4-6.4-24.7,12.1,11.5,10.7,36.5,29,41.9-1.3-10.1-6.2-16.7-6.4-27.9,13.1,10.6,7.3,40,24.7,46.2.8-12.2-4.1-18.9-3.2-31.1,12.1,10.5,3.5,41.6,18.3,49.4.2-13-.6-20.6,0-32.2,10.9,9.5-1.3,42.2,11.8,49.4,3.9-8.6,0-25,7.5-30.1,4.9,20.5-10.7,43.6,5.4,54.8,4.9-8.7-.4-27.6,10.7-30.1,1.9,20.5-13.8,39.8-1.1,54.8,7-8.8,4.9-26.6,14-33.3,3.3,25.6-18.5,41.4-6.4,62.3,7.9-10.3,10.5-26,18.3-36.5,4.2,27.1-24,38.9-15,67.7,9.7-9.3,14.1-23.9,23.6-33.3,0,24.7-26.4,32.3-23.6,63.4,11.3-9.5,17.5-24,27.9-34.4.1,26.3-29.2,32.4-31.1,60.1,11.3-6.2,21.7-22.7,34.4-31.1-2.4,23.8-32.9,28.7-38.7,52.6,12.3-6,24.5-21.3,39.7-27.9-11.2,17.4-27.4,29.9-45.1,40.8-.5,3.5-2.1,5.8-2.1,9.7,12.9-4.6,26.4-18,41.9-23.6Z"/>
        <path class="cls-1" d="M199.9,310.7h51.5c12.9,47.9,49.4,84.4,104.2,89.1,71.1,6.2,117.1-34.2,132.1-89.1h52.6c-18,81.6-80,147.7-184.7,140.7-83.9-5.6-139.6-62.3-155.7-137.5.2-1.8-1.8-2.8,0-3.2ZM245,332.2c1.3-5.9-3.4-5.9-2.1-11.8-3,.9-2.8-1.5-5.4-1.1.9,5.9.3,13.3,7.5,12.9ZM518.8,327.9c-5-5.4-14.9-5.9-23.6-7.5,2.5,7.2,16.4,8.6,23.6,7.5ZM217.1,333.3c2.4,3.4,10.8.6,12.9,4.3-.2,4.1-4.5,4.1-4.3,8.6,3.1,4.7,4.8,11,9.7,14,3.9,1.4,11.6-2.7,11.8-8.6-5.7-1.4-6.8,1.8-8.6,4.3-1.3-5.2-4.8-8.1-6.4-12.9,2.4-1.6,5-2.8,4.3-7.5-3.3-3.2-10.8-2.1-14-5.4.9-4.5,7.2-3.5,8.6-7.5-6.6,1.6-14,2.4-14,10.7ZM507,334.3c-6.1-2.8-9.4-7.4-16.1-2.1,2.8,5.8,14,3.2,18.3,7.5-1.6,3.8-5.6,5.1-11.8,4.3-.8,5.8,1.6,8.4,3.2,11.8-2.1,1.1-1.7,4.7-5.4,4.3-6.6-1.2-9.6-6.2-16.1-7.5.7,8.6,11.3,7.3,15,12.9-3.3,3.8-5.8,8.5-9.7,11.8-13.1-7-20.9,14.6-29,16.1.8-6.1,8.6-11.4,3.2-17.2-3.9,5.5-8.7,15.4-5.4,24.7,12.5-2.5,16.6-19.2,27.9-19.3-9.3,7.5-16.2,17.5-27.9,22.6-2.9-.4-4.6-5-7.5-2.1-3.7,2.3-2,10.2-4.3,14-5.5.1-4.1-6.6-8.6-7.5,1.5,6.7,4.5,12,10.7,14,5.2-1.2,1.6-11.3,4.3-15,3.2.7,3.7,4.1,8.6,3.2,16.6-11.4,31.1-24.7,43-40.8,0-1.9-.2-3.3-1.1-4.3,4.2-.1,5.4-3.2,7.5-5.4.8-3.3-1.1-3.9-1.1-6.4,9.6-1.8,7.1-13.9,15-19.3-4.2-5-7.4-1.4-12.9,0ZM225.6,362.3h4.3c.9-6.3-4.2-6.5-4.3-11.8h-4.3c-.9,6.3,4.2,6.5,4.3,11.8ZM245,375.1c1.9-3.8,9.2-6.8,7.5-10.7-5.5-1-4.6,3.7-9.7,5.4-.5-2-2.3-2.7-2.1-5.4h-5.4c1,5.8,3.7,9.9,9.7,10.7ZM258.9,381.6c1.7-1.8,3.3-3.9,3.2-7.5-1.2-.2-1.7-1.2-2.1-2.1-9.4-.8-12.7,5.9-10.7,10.7-5.6,0-7-4.5-10.7-6.4,1.3,7.9,5.9,13.8,15,10.7,15.3,13.3,30.4,26.8,50.5,35.4,6-1.5,5.7-15,10.7-14-.9,5.2-5.7,12.2-3.2,17.2,5.9-5.2,6.8-15.4,9.7-23.6-3.4-.5-2.8,2.9-5.4,3.2-1-1.9-3-2.7-2.1-6.4-2.7-.2-3.3,1.7-5.4,2.1-.1,6.3-1.1,11.8-4.3,15-5.7-1.9,1-4.7-3.2-6.4-.9,1.6-2.7,2.3-5.4,2.1-2.2-2.2.5-2.1,1.1-4.3-5.5,1.7-10.7-.1-6.4-4.3-6.1.3-11.2-.2-11.8-5.4,2.3.2,3.4-.9,3.2-3.2-1.7-5.3-7.5-9.7-12.9-5.4-1.4,2.7,4.2,3.4,1.1,4.3-2.9-4.6-7.8-7.2-10.7-11.8ZM428.6,403.1c6.8-.4,11.1-3.2,12.9-8.6-6.7.4-12.1,2.2-12.9,8.6ZM420,406.3c-2.9-.4-3.8-2.7-6.4-3.2-1.2,9.4,5.6,10.9,6.4,18.3-2,1.2-5.1,1.4-7.5,2.1,4.4-7.7-11.3-8-11.8-1.1-1.7,4.2,2.8,2.2,3.2,4.3-8.7,2.3-19.2,3.5-23.6-3.2-1.5,5.9.4,7.1,3.2,10.7-1.9,4.2-6.7,5.5-10.7,7.5,2.8,1.2,5.3,2.6,9.7,2.1,2.6-2,3-6.3,5.4-8.6,17.2-.1,23.6-5.5,36.5-8.6,2.1-8.2-5.6-12.3-2.1-18.3,2.5,5.8,4.2,12.3,9.7,15-.8-10.3-5-17.2-10.7-22.6-.6,1.6,1.3,5.6-1.1,5.4ZM324.4,408.4c3,3.8,11.2,7.9,15,2.1-3.3-4.3-7.5-1.1-10.7-5.4-.3,2.2-4,1-4.3,3.2ZM321.2,433.1c7.7.6,6.9-7.5,14-7.5-.6,3.5.7,5,1.1,7.5,14.2,4.1,22.4,1.7,37.6,3.2,2-5.4,3.2-13.2-3.2-15-2.9,4.2.2,5.8-1.1,8.6-4,0-8.7.8-7.5-4.3-4.1,4.9-14.2,3-21.5,2.1-1.8-1.4-.4-6.1-2.1-7.5-8.6-1.4-8.1,6.2-15,6.4-4.4-3.1,4.4-10.1-1.1-10.7-1.4,4.7-5.8,12.9-1.1,17.2ZM349.1,441.7c3.7,3.7,7.6.4,11.8,3.2.2-1.2,1.2-1.7,2.1-2.1.8-2.9-2.1-2.2-2.1-4.3-5.2,3.7-8.5-2.9-11.8,3.2ZM364.2,440.6c.1,2.7,1.6,4.2,4.3,4.3,1.5-.3,1.8-1.8,3.2-2.1-.2-5.1-4.8-4.5-7.5-2.1Z"/>
      </g>
    </g>
  </g>
</svg>