<svg xmlns="http://www.w3.org/2000/svg" xmlns:xlink="http://www.w3.org/1999/xlink" width="2000" zoomAndPan="magnify" viewBox="0 0 1500 1499.999933" height="2000" preserveAspectRatio="xMidYMid meet" version="1.0"><defs><clipPath id="5aca55ae27"><path d="M 365.71875 722 L 650 722 L 650 1125 L 365.71875 1125 Z M 365.71875 722 " clip-rule="nonzero"/></clipPath></defs><g clip-path="url(#5aca55ae27)"><path fill="#9a303e" d="M 365.953125 1118.742188 C 372.125 1064.789062 378.375 1009.894531 390.277344 975.511719 C 402.578125 939.972656 421.109375 925.945312 461.585938 903.796875 C 501.847656 881.761719 565.101562 851.019531 628.171875 820.355469 L 628.164062 820.359375 L 628.222656 820.332031 L 625.441406 824.144531 L 639.566406 726.886719 C 639.96875 724.125 642.53125 722.214844 645.292969 722.613281 C 648.050781 723.015625 649.964844 725.578125 649.5625 728.339844 L 635.4375 825.59375 C 635.199219 827.246094 634.15625 828.675781 632.65625 829.40625 L 632.597656 829.4375 L 632.589844 829.441406 C 569.417969 860.152344 506.429688 890.773438 466.433594 912.660156 C 426.621094 934.449219 410.867188 946.902344 399.820312 978.816406 C 388.375 1011.886719 382.222656 1065.417969 375.988281 1119.890625 C 375.671875 1122.660156 373.167969 1124.648438 370.394531 1124.332031 C 367.625 1124.015625 365.636719 1121.511719 365.953125 1118.742188 Z M 365.953125 1118.742188 " fill-opacity="1" fill-rule="nonzero"/></g><path fill="#9a303e" d="M 1133.9375 1130.210938 C 1129.378906 1076.097656 1124.769531 1021.042969 1113.902344 986.320312 C 1102.667969 950.425781 1084.5625 935.855469 1044.769531 912.507812 C 1005.179688 889.28125 942.875 856.660156 880.746094 824.128906 L 880.753906 824.132812 L 880.695312 824.101562 L 883.363281 827.996094 L 872.148438 730.359375 C 871.828125 727.589844 869.324219 725.601562 866.554688 725.917969 C 863.78125 726.238281 861.792969 728.742188 862.113281 731.511719 L 873.328125 829.148438 C 873.515625 830.808594 874.515625 832.265625 875.992188 833.042969 L 876.050781 833.074219 L 876.058594 833.078125 C 938.289062 865.660156 1000.332031 898.148438 1039.65625 921.222656 C 1078.800781 944.1875 1094.175781 957.109375 1104.261719 989.335938 C 1114.714844 1022.734375 1119.269531 1076.425781 1123.871094 1131.058594 C 1124.105469 1133.839844 1126.550781 1135.902344 1129.328125 1135.667969 C 1132.109375 1135.433594 1134.171875 1132.992188 1133.9375 1130.210938 Z M 1133.9375 1130.210938 " fill-opacity="1" fill-rule="nonzero"/><path fill="#9a303e" d="M 640.816406 508.523438 C 637.21875 576.921875 633.691406 644.488281 640.734375 691.226562 C 647.695312 737.441406 665.03125 763.15625 680.921875 782.316406 C 697.019531 801.726562 711.257812 813.910156 723.289062 820.050781 C 735.105469 826.078125 745.148438 826.480469 756.175781 826.875 C 758.964844 826.976562 761.144531 829.316406 761.042969 832.105469 C 760.941406 834.894531 758.601562 837.070312 755.816406 836.972656 C 744.742188 836.574219 732.683594 836.183594 718.699219 829.046875 C 704.925781 822.023438 689.65625 808.667969 673.144531 788.765625 C 656.429688 768.609375 638.050781 741.238281 630.742188 692.730469 C 623.511719 644.738281 627.15625 575.957031 630.730469 507.992188 C 630.875 505.207031 633.253906 503.070312 636.039062 503.214844 C 638.824219 503.363281 640.964844 505.738281 640.816406 508.523438 Z M 640.816406 508.523438 " fill-opacity="1" fill-rule="nonzero"/><path fill="#9a303e" d="M 877.421875 512.058594 C 878.972656 580.53125 880.484375 648.175781 872.046875 694.679688 C 863.707031 740.667969 845.613281 765.855469 829.15625 784.53125 C 812.484375 803.449219 797.890625 815.203125 785.683594 820.980469 L 785.679688 820.980469 C 773.6875 826.65625 763.636719 826.757812 752.605469 826.824219 C 749.816406 826.839844 747.566406 829.113281 747.585938 831.902344 C 747.601562 834.691406 749.875 836.941406 752.664062 836.925781 C 763.746094 836.859375 775.808594 836.828125 790.003906 830.113281 L 790 830.113281 C 803.976562 823.5 819.640625 810.609375 836.738281 791.207031 C 854.046875 771.5625 873.234375 744.75 881.988281 696.484375 C 890.648438 648.730469 889.0625 579.867188 887.519531 511.828125 C 887.457031 509.039062 885.144531 506.832031 882.355469 506.894531 C 879.566406 506.957031 877.359375 509.269531 877.421875 512.058594 Z M 877.421875 512.058594 " fill-opacity="1" fill-rule="nonzero"/><path fill="#9a303e" d="M 486.238281 892.6875 C 496.171875 831.722656 506.144531 770.503906 521.714844 709.558594 C 537.257812 648.726562 558.457031 587.828125 577.933594 553.09375 C 597.800781 517.675781 616.078125 509.160156 633.867188 500.992188 C 635.160156 500.394531 636.648438 500.375 637.957031 500.9375 C 660.585938 510.605469 682.71875 520.046875 702.9375 525.066406 C 723.046875 530.058594 741.402344 530.699219 760.304688 531.347656 C 763.089844 531.441406 765.273438 533.78125 765.179688 536.566406 C 765.082031 539.355469 762.746094 541.539062 759.957031 541.441406 C 741.140625 540.800781 721.78125 540.152344 700.503906 534.871094 C 679.339844 529.617188 656.414062 519.808594 633.988281 510.226562 L 638.082031 510.171875 C 621.390625 517.835938 605.191406 525.152344 586.746094 558.035156 C 567.914062 591.613281 546.972656 651.5 531.503906 712.058594 C 516.0625 772.5 506.152344 833.28125 496.207031 894.3125 C 495.757812 897.0625 493.164062 898.933594 490.410156 898.484375 C 487.65625 898.035156 485.789062 895.441406 486.238281 892.6875 Z M 486.238281 892.6875 " fill-opacity="1" fill-rule="nonzero"/><path fill="#9a303e" d="M 1020.457031 900.664062 C 1012.347656 839.433594 1004.207031 777.941406 990.464844 716.558594 C 976.746094 655.289062 957.375 593.785156 938.941406 558.488281 C 920.144531 522.488281 902.128906 513.429688 884.59375 504.734375 C 883.316406 504.101562 881.832031 504.039062 880.503906 504.558594 C 857.597656 513.546875 835.191406 522.324219 814.832031 526.738281 C 794.582031 531.125 776.21875 531.21875 757.304688 531.300781 C 754.515625 531.3125 752.265625 533.585938 752.277344 536.375 C 752.289062 539.164062 754.558594 541.417969 757.347656 541.402344 C 776.175781 541.324219 795.546875 541.253906 816.972656 536.609375 C 838.285156 531.992188 861.492188 522.871094 884.195312 513.960938 L 880.105469 513.785156 C 896.558594 521.945312 912.535156 529.742188 929.988281 563.164062 C 947.808594 597.285156 966.953125 657.769531 980.605469 718.765625 C 994.234375 779.640625 1002.324219 840.691406 1010.445312 901.992188 C 1010.808594 904.757812 1013.347656 906.703125 1016.113281 906.335938 C 1018.878906 905.96875 1020.824219 903.429688 1020.457031 900.664062 Z M 1020.457031 900.664062 " fill-opacity="1" fill-rule="nonzero"/><path fill="#9a303e" d="M 579.636719 548.113281 C 580.402344 522.726562 581.160156 496.277344 600.171875 464.582031 C 618.90625 433.347656 655.425781 396.921875 692.636719 378.847656 C 713.980469 368.480469 735.503906 364.167969 756.960938 364.488281 C 773.203125 364.730469 789.34375 367.625 805.292969 372.492188 C 842.160156 383.746094 878.636719 405.746094 902.15625 432.5625 C 925.75 459.464844 936.019531 490.871094 940.277344 513.480469 C 944.582031 536.320312 942.824219 550.613281 941.125 564.445312 C 940.785156 567.214844 938.265625 569.183594 935.496094 568.84375 C 932.726562 568.503906 930.757812 565.984375 931.097656 563.214844 C 932.757812 549.699219 934.363281 536.644531 930.351562 515.351562 C 926.296875 493.832031 916.574219 464.320312 894.5625 439.222656 C 872.472656 414.039062 837.71875 392.949219 802.34375 382.15625 C 787.140625 377.515625 771.949219 374.816406 756.808594 374.589844 C 736.867188 374.292969 716.917969 378.285156 697.050781 387.933594 C 661.808594 405.050781 626.6875 440.019531 608.835938 469.777344 C 591.261719 499.074219 590.496094 523.214844 589.734375 548.417969 C 589.652344 551.207031 587.324219 553.398438 584.535156 553.3125 C 581.746094 553.230469 579.554688 550.902344 579.636719 548.113281 Z M 579.636719 548.113281 " fill-opacity="1" fill-rule="nonzero"/><path fill="#9a303e" d="M 635.707031 430.480469 C 631.125 428.25 627.886719 427.457031 625.988281 428.101562 L 625.925781 428.121094 C 625.382812 428.296875 625.035156 428.464844 624.886719 428.621094 C 624.9375 428.566406 624.972656 428.503906 624.984375 428.433594 C 624.945312 428.625 624.992188 428.964844 625.121094 429.457031 L 625.117188 429.445312 C 626.308594 433.855469 633.042969 438.324219 645.320312 442.851562 L 645.234375 442.820312 C 652.332031 445.292969 665.488281 447.714844 684.699219 450.082031 L 684.730469 450.085938 C 709.179688 453.257812 727.195312 454.707031 738.777344 454.425781 L 738.949219 454.425781 C 763.195312 454.667969 788.699219 454.070312 815.460938 452.625 L 815.523438 452.621094 C 845.949219 451.367188 868.175781 449.5 882.203125 447.023438 L 882.035156 447.054688 C 895.59375 444.191406 903.648438 440.757812 906.191406 436.757812 L 906.070312 436.953125 C 907.25 434.898438 907.117188 433.078125 905.667969 431.496094 L 906.363281 432.125 C 905.203125 431.253906 902.929688 431.722656 899.542969 433.53125 C 897.082031 434.84375 894.023438 433.910156 892.710938 431.449219 C 891.398438 428.988281 892.328125 425.925781 894.792969 424.617188 C 901.960938 420.792969 907.84375 420.601562 912.429688 424.046875 C 912.679688 424.234375 912.910156 424.445312 913.121094 424.675781 C 917.890625 429.886719 918.460938 435.65625 914.835938 441.980469 L 914.714844 442.175781 C 910.652344 448.566406 900.453125 453.488281 884.125 456.9375 L 883.957031 456.972656 C 869.488281 459.527344 846.816406 461.441406 815.941406 462.714844 L 816.003906 462.710938 C 789.027344 464.167969 763.308594 464.773438 738.851562 464.527344 L 739.023438 464.527344 C 726.921875 464.816406 708.394531 463.34375 683.429688 460.101562 L 683.464844 460.105469 C 663.539062 457.652344 649.6875 455.070312 641.910156 452.363281 L 641.824219 452.332031 C 626.28125 446.597656 617.460938 439.84375 615.367188 432.074219 L 615.363281 432.0625 C 614.816406 430.011719 614.730469 428.105469 615.105469 426.335938 C 615.492188 424.519531 616.328125 422.941406 617.621094 421.605469 C 618.933594 420.242188 620.660156 419.210938 622.796875 418.515625 L 622.734375 418.535156 C 627.261719 417 633.058594 417.953125 640.132812 421.398438 C 642.640625 422.621094 643.683594 425.644531 642.460938 428.152344 C 641.238281 430.660156 638.214844 431.703125 635.707031 430.480469 Z M 635.707031 430.480469 " fill-opacity="1" fill-rule="nonzero"/><path fill="#9a303e" d="M 907.753906 446.792969 C 913.96875 441.753906 920.074219 440.824219 926.0625 444.007812 C 926.652344 444.320312 927.175781 444.746094 927.597656 445.261719 C 932.292969 450.984375 932.492188 457.199219 928.195312 463.898438 L 928.191406 463.90625 C 923.613281 471.027344 912.484375 476.898438 894.804688 481.527344 L 894.820312 481.523438 C 879.460938 485.597656 863.761719 488.351562 847.726562 489.785156 L 847.761719 489.785156 C 831.507812 491.34375 805.660156 492.25 770.222656 492.496094 L 770.15625 492.496094 C 748.964844 492.378906 719.820312 491.054688 682.722656 488.53125 L 682.621094 488.523438 C 652.378906 485.847656 634.851562 483.691406 630.035156 482.058594 L 630.4375 482.179688 C 615.007812 478.351562 604.164062 472.191406 597.90625 463.695312 C 592.898438 456.894531 592.195312 451.101562 595.789062 446.324219 L 595.777344 446.339844 C 597.277344 444.332031 599.296875 443.15625 601.839844 442.820312 C 604.972656 442.402344 608.796875 443.472656 613.316406 446.03125 C 615.746094 447.402344 616.601562 450.484375 615.226562 452.914062 C 613.851562 455.339844 610.769531 456.195312 608.34375 454.820312 C 605.789062 453.375 604.066406 452.714844 603.171875 452.832031 C 603.441406 452.796875 603.675781 452.644531 603.875 452.378906 L 603.863281 452.398438 C 603.28125 453.171875 604.007812 454.941406 606.039062 457.707031 L 606.039062 457.703125 C 610.855469 464.242188 619.800781 469.132812 632.871094 472.375 C 633.007812 472.40625 633.140625 472.445312 633.273438 472.492188 C 637.328125 473.863281 654.074219 475.855469 683.511719 478.460938 L 683.410156 478.453125 C 720.296875 480.964844 749.230469 482.277344 770.214844 482.394531 L 770.152344 482.394531 C 805.292969 482.148438 830.839844 481.261719 846.792969 479.726562 L 846.828125 479.726562 C 862.289062 478.339844 877.425781 475.683594 892.230469 471.757812 L 892.246094 471.753906 C 907.386719 467.792969 916.535156 463.355469 919.695312 458.441406 L 919.691406 458.445312 C 921.347656 455.867188 921.378906 453.609375 919.789062 451.671875 L 921.324219 452.929688 C 919.273438 451.835938 916.867188 452.40625 914.113281 454.640625 C 911.949219 456.394531 908.765625 456.0625 907.011719 453.894531 C 905.253906 451.730469 905.585938 448.546875 907.753906 446.792969 Z M 907.753906 446.792969 " fill-opacity="1" fill-rule="nonzero"/><path fill="#9a303e" d="M 881.265625 833.03125 L 874.234375 841.351562 C 874.15625 841.441406 874.078125 841.527344 873.996094 841.613281 L 866.394531 849.417969 C 866.3125 849.503906 866.226562 849.585938 866.140625 849.664062 L 858.011719 856.914062 C 857.921875 856.996094 857.832031 857.070312 857.738281 857.140625 L 849.121094 863.804688 C 849.027344 863.878906 848.929688 863.945312 848.832031 864.011719 L 839.765625 870.054688 C 839.667969 870.121094 839.566406 870.183594 839.464844 870.242188 L 830 875.628906 C 829.894531 875.6875 829.789062 875.746094 829.683594 875.796875 L 819.863281 880.507812 C 819.753906 880.558594 819.648438 880.605469 819.535156 880.648438 L 809.40625 884.660156 C 809.296875 884.703125 809.1875 884.742188 809.074219 884.777344 L 798.6875 888.066406 C 798.574219 888.101562 798.460938 888.136719 798.347656 888.164062 L 787.757812 890.714844 C 787.640625 890.742188 787.523438 890.765625 787.40625 890.785156 L 776.664062 892.585938 C 776.546875 892.605469 776.429688 892.621094 776.3125 892.632812 L 765.46875 893.675781 C 765.351562 893.6875 765.234375 893.695312 765.113281 893.699219 L 754.226562 893.976562 C 754.105469 893.980469 753.988281 893.976562 753.871094 893.972656 L 742.976562 893.484375 C 742.859375 893.480469 742.742188 893.46875 742.625 893.457031 L 731.792969 892.203125 C 731.675781 892.191406 731.558594 892.171875 731.441406 892.148438 L 720.722656 890.140625 C 720.609375 890.117188 720.492188 890.089844 720.378906 890.0625 L 709.828125 887.300781 C 709.714844 887.273438 709.601562 887.238281 709.488281 887.199219 L 699.160156 883.707031 C 699.046875 883.667969 698.9375 883.625 698.828125 883.582031 L 688.769531 879.371094 C 688.660156 879.324219 688.554688 879.273438 688.449219 879.222656 L 678.710938 874.3125 C 678.605469 874.261719 678.5 874.203125 678.398438 874.140625 L 669.03125 868.5625 C 668.929688 868.5 668.832031 868.4375 668.734375 868.371094 L 659.78125 862.144531 C 659.683594 862.078125 659.589844 862.007812 659.496094 861.933594 L 651.003906 855.09375 C 650.914062 855.019531 650.824219 854.941406 650.738281 854.859375 L 642.746094 847.441406 C 642.660156 847.363281 642.574219 847.277344 642.496094 847.191406 L 635.046875 839.230469 C 634.964844 839.144531 634.886719 839.054688 634.8125 838.960938 L 627.941406 830.496094 C 626.183594 828.328125 626.515625 825.148438 628.679688 823.390625 C 630.847656 821.632812 634.027344 821.964844 635.785156 824.128906 L 642.65625 832.597656 L 642.421875 832.328125 L 649.871094 840.289062 L 649.621094 840.039062 L 657.609375 847.457031 L 657.339844 847.226562 L 665.832031 854.0625 L 665.550781 853.851562 L 674.5 860.074219 L 674.203125 859.882812 L 683.570312 865.464844 L 683.257812 865.292969 L 692.996094 870.199219 L 692.671875 870.050781 L 702.730469 874.261719 L 702.398438 874.136719 L 712.726562 877.632812 L 712.386719 877.53125 L 722.933594 880.289062 L 722.585938 880.210938 L 733.304688 882.222656 L 732.953125 882.167969 L 743.785156 883.421875 L 743.429688 883.394531 L 754.320312 883.878906 L 753.964844 883.878906 L 764.855469 883.597656 L 764.503906 883.621094 L 775.347656 882.578125 L 774.992188 882.625 L 785.738281 880.824219 L 785.390625 880.894531 L 795.980469 878.34375 L 795.636719 878.4375 L 806.023438 875.148438 L 805.6875 875.265625 L 815.816406 871.257812 L 815.492188 871.398438 L 825.3125 866.6875 L 825 866.851562 L 834.464844 861.460938 L 834.164062 861.648438 L 843.230469 855.605469 L 842.941406 855.8125 L 851.558594 849.152344 L 851.285156 849.378906 L 859.414062 842.125 L 859.160156 842.371094 L 866.757812 834.566406 L 866.519531 834.828125 L 873.550781 826.507812 C 875.351562 824.378906 878.539062 824.113281 880.667969 825.914062 C 882.800781 827.714844 883.066406 830.898438 881.265625 833.03125 Z M 881.265625 833.03125 " fill-opacity="1" fill-rule="nonzero"/><path fill="#9a303e" d="M 777.4375 962.070312 L 735.265625 960.535156 C 732.476562 960.433594 730.300781 958.089844 730.402344 955.304688 C 730.503906 952.515625 732.84375 950.339844 735.632812 950.441406 L 777.804688 951.976562 C 780.59375 952.078125 782.769531 954.417969 782.667969 957.207031 C 782.566406 959.992188 780.226562 962.171875 777.4375 962.070312 Z M 777.4375 962.070312 " fill-opacity="1" fill-rule="nonzero"/><path fill="#9a303e" d="M 775.917969 1019.9375 L 735.824219 1017.984375 C 733.039062 1017.847656 730.890625 1015.476562 731.023438 1012.691406 C 731.160156 1009.90625 733.53125 1007.757812 736.316406 1007.894531 L 776.40625 1009.847656 C 779.195312 1009.984375 781.34375 1012.351562 781.207031 1015.136719 C 781.070312 1017.925781 778.703125 1020.074219 775.917969 1019.9375 Z M 775.917969 1019.9375 " fill-opacity="1" fill-rule="nonzero"/><path fill="#9a303e" d="M 772.480469 1072.078125 L 733.640625 1071.023438 C 730.851562 1070.945312 728.652344 1068.625 728.726562 1065.835938 C 728.804688 1063.046875 731.125 1060.847656 733.914062 1060.925781 L 772.753906 1061.976562 C 775.542969 1062.054688 777.742188 1064.375 777.667969 1067.164062 C 777.589844 1069.953125 775.269531 1072.152344 772.480469 1072.078125 Z M 772.480469 1072.078125 " fill-opacity="1" fill-rule="nonzero"/></svg>