<svg xmlns="http://www.w3.org/2000/svg" xmlns:xlink="http://www.w3.org/1999/xlink" width="2000" zoomAndPan="magnify" viewBox="0 0 1500 1499.999933" height="2000" preserveAspectRatio="xMidYMid meet" version="1.0"><defs><clipPath id="9b4f743c98"><path d="M 417 412 L 1093.207031 412 L 1093.207031 1141.699219 L 417 1141.699219 Z M 417 412 " clip-rule="nonzero"/></clipPath></defs><g clip-path="url(#9b4f743c98)"><path fill="#9a303e" d="M 814.085938 856.429688 C 736.414062 938.804688 613.257812 941.949219 556.753906 950.566406 C 661.964844 912.878906 821.222656 857.933594 833.699219 747.355469 C 839.195312 698.703125 843.105469 592.800781 811.734375 555.933594 C 780.363281 519.066406 746.617188 482.964844 705.808594 509.660156 C 665.003906 536.324219 591.269531 598.300781 591.269531 688.527344 C 566.160156 643.015625 548.109375 534.765625 574.804688 493.167969 C 661.355469 358.25 828.96875 407.0625 876.0625 529.269531 C 901.171875 594.386719 891.761719 774.050781 814.085938 856.429688 Z M 548.402344 772.171875 C 582.679688 894.90625 722.59375 874.242188 722.59375 874.242188 C 620.949219 858.699219 544.121094 640.664062 554.320312 548.773438 C 554.320312 548.773438 514.125 649.4375 548.402344 772.171875 Z M 545.46875 789.457031 C 531.617188 806.902344 530.589844 892.527344 553.660156 896.625 C 622.375 902.253906 694.65625 883.304688 694.65625 883.304688 C 602.421875 885.710938 547 822.28125 545.46875 789.457031 Z M 500.855469 943.746094 C 550.066406 948.953125 655.859375 909.601562 681.785156 890.019531 C 655.09375 898.6875 552.496094 911.160156 511.613281 900.40625 C 470.703125 889.675781 451.644531 938.542969 500.855469 943.746094 Z M 461.054688 955.585938 C 450.484375 967.902344 475.140625 1048.324219 596.050781 1038.335938 C 716.960938 1028.34375 834.941406 924.902344 857.828125 874.214844 C 880.714844 823.523438 880.132812 734.300781 880.132812 734.300781 C 874.847656 792.417969 839.644531 867.527344 779.757812 902.148438 C 719.894531 936.769531 597.214844 967.296875 521.496094 958.496094 C 483.96875 952.074219 471.625 943.273438 461.054688 955.585938 Z M 895.488281 758.746094 C 917.527344 889.09375 823.65625 941.15625 768.683594 983.917969 C 621.105469 1098.699219 443.453125 1052.765625 450.035156 963.015625 C 450.035156 963.015625 406.929688 997.054688 419.878906 1007.414062 C 432.800781 1017.773438 557.625 1141.9375 732.238281 1141.9375 C 906.851562 1141.9375 1040.078125 1056.570312 1093.121094 1077.265625 C 1059.476562 1055.277344 895.488281 758.746094 895.488281 758.746094 Z M 895.488281 758.746094 " fill-opacity="1" fill-rule="nonzero"/></g></svg>